<?xml version="1.0" encoding="UTF-8" standalone="no"?>
<!-- Uploaded to: SVG Repo, www.svgrepo.com, Transformed by: SVG Repo Mixer Tools -->

<svg
   fill="#2580ff"
   version="1.1"
   id="Layer_1"
   width="835.45282"
   height="835.45282"
   viewBox="0 0 534.6898 534.6898"
   enable-background="new 0 0 512 512"
   xml:space="preserve"
   sodipodi:docname="email-add-svgrepo-com.svg"
   xmlns:inkscape="http://www.inkscape.org/namespaces/inkscape"
   xmlns:sodipodi="http://sodipodi.sourceforge.net/DTD/sodipodi-0.dtd"
   xmlns="http://www.w3.org/2000/svg"
   xmlns:svg="http://www.w3.org/2000/svg"><defs
   id="defs4" /><sodipodi:namedview
   id="namedview4"
   pagecolor="#ffffff"
   bordercolor="#000000"
   borderopacity="0.25"
   inkscape:showpageshadow="2"
   inkscape:pageopacity="0.0"
   inkscape:pagecheckerboard="0"
   inkscape:deskcolor="#d1d1d1" />





<g
   id="SVGRepo_iconCarrier"
   transform="translate(34.610626,71.964081)">  <circle
   style="fill:#2580ff;fill-opacity:1;stroke-width:0.799263"
   id="path2"
   cx="232.73428"
   cy="195.38083"
   r="267.34491" /><circle
   style="fill:#ffffff;fill-opacity:1;stroke-width:0.732528"
   id="path2-6"
   cx="232.73428"
   cy="195.38083"
   r="245.02267" /><g
   style="fill:#2580ff;stroke:#2580ff"
   id="g4"
   transform="matrix(0.68388596,0,0,0.68388596,57.659477,23.732559)"><g
     id="SVGRepo_bgCarrier-9"
     stroke-width="0" /><g
     id="SVGRepo_tracerCarrier-4"
     stroke-linecap="round"
     stroke-linejoin="round" /><g
     id="SVGRepo_iconCarrier-1"> <style
   type="text/css"
   id="style1"> .st0{fill:#2580ff;} </style> <g
   id="g1"> <path
   class="st0"
   d="M 440.917,67.925 H 71.083 C 31.827,67.925 0,99.752 0,139.008 v 233.984 c 0,39.256 31.827,71.083 71.083,71.083 h 369.834 c 39.255,0 71.083,-31.827 71.083,-71.083 V 139.008 C 512,99.752 480.172,67.925 440.917,67.925 Z M 178.166,321.72 78.626,406.64 c -7.021,5.992 -17.576,5.159 -23.567,-1.869 -5.992,-7.021 -5.159,-17.576 1.87,-23.567 l 99.54,-84.92 c 7.02,-5.992 17.574,-5.159 23.566,1.87 5.992,7.02 5.159,17.575 -1.869,23.566 z M 256,289.436 c -13.314,-0.033 -26.22,-4.457 -36.31,-13.183 l 0.008,0.008 -0.032,-0.024 c 0.008,0.008 0.017,0.008 0.024,0.016 L 66.962,143.694 c -6.98,-6.058 -7.723,-16.612 -1.674,-23.583 6.057,-6.98 16.612,-7.723 23.582,-1.674 l 152.771,132.592 c 3.265,2.906 8.645,5.004 14.359,4.971 5.706,0.017 10.995,-2.024 14.44,-5.028 l 0.074,-0.065 152.615,-132.469 c 6.971,-6.049 17.526,-5.306 23.583,1.674 6.048,6.97 5.306,17.525 -1.674,23.583 l -152.77,132.599 c -10.057,8.635 -22.946,13.125 -36.268,13.142 z m 200.948,115.335 c -5.992,7.028 -16.547,7.861 -23.566,1.869 l -99.54,-84.92 c -7.028,-5.992 -7.861,-16.546 -1.869,-23.566 5.991,-7.029 16.546,-7.861 23.566,-1.87 l 99.54,84.92 c 7.028,5.991 7.861,16.546 1.869,23.567 z"
   id="path1" /> </g> </g></g></g>

</svg>
