<?xml version="1.0" encoding="UTF-8" standalone="no"?>
<!-- Uploaded to: SVG Repo, www.svgrepo.com, Transformed by: SVG Repo Mixer Tools -->

<svg
   width="835.45276"
   height="835.45276"
   viewBox="0 -0.5 50.127166 50.127166"
   version="1.1"
   fill="#000000"
   id="svg1"
   xmlns="http://www.w3.org/2000/svg"
   xmlns:svg="http://www.w3.org/2000/svg">
  <defs
     id="defs2" />
  <g
     id="g2"
     transform="translate(1.0635833,1.0635832)">
    <circle
       style="fill:#2580ff;fill-opacity:1;stroke-width:0.0749309"
       id="path2"
       cx="24"
       cy="23.5"
       r="25.063583" />
    <g
       id="SVGRepo_iconCarrier"
       transform="translate(0.12,-0.6)">
      <title
         id="title1">Github-color</title>
      <desc
         id="desc1">Created with Sketch.</desc>
      <defs
         id="defs1" />
      <g
         id="Icons"
         stroke="none"
         stroke-width="1"
         fill="none"
         fill-rule="evenodd">
        <g
           id="Color-"
           transform="translate(-700,-560)"
           fill="#ffffff">
          <path
             d="M 723.9985,560 C 710.746,560 700,570.78709 700,584.09664 c 0,10.64403 6.876,19.67519 16.4145,22.86177 1.2,0.22138 1.638,-0.52256 1.638,-1.16108 0,-0.57226 -0.021,-2.08724 -0.033,-4.09768 -6.6765,1.45625 -8.085,-3.23026 -8.085,-3.23026 -1.0905,-2.78298 -2.664,-3.52391 -2.664,-3.52391 -2.1795,-1.49541 0.165,-1.46529 0.165,-1.46529 2.4075,0.17018 3.675,2.48331 3.675,2.48331 2.142,3.68204 5.6175,2.61884 6.9855,2.0014 0.2175,-1.55715 0.8385,-2.61884 1.524,-3.22122 -5.3295,-0.6084 -10.932,-2.67456 -10.932,-11.90751 0,-2.63089 0.9345,-4.78138 2.4705,-6.46654 -0.2475,-0.6099 -1.071,-3.05857 0.234,-6.37617 0,0 2.016,-0.64756 6.6,2.46975 1.9155,-0.53461 3.9675,-0.80116 6.009,-0.8117 2.0385,0.0105 4.092,0.27709 6.009,0.8117 4.581,-3.11731 6.5925,-2.46975 6.5925,-2.46975 1.3095,3.3176 0.486,5.76627 0.2385,6.37617 1.539,1.68516 2.4675,3.83565 2.4675,6.46654 0,9.25554 -5.6115,11.29309 -10.9575,11.88944 0.861,0.74394 1.629,2.21374 1.629,4.46212 0,3.22122 -0.03,5.81898 -0.03,6.6096 0,0.64454 0.432,1.3945 1.65,1.15807 C 741.13,603.76279 748,594.73766 748,584.09664 748,570.78709 737.254,560 723.9985,560"
             id="Github" />
        </g>
      </g>
    </g>
  </g>
</svg>
