<?xml version="1.0" encoding="UTF-8" standalone="no"?>
<!-- Uploaded to: SVG Repo, www.svgrepo.com, Transformed by: SVG Repo Mixer Tools -->

<svg
   width="836.70166"
   height="836.70166"
   viewBox="0 0 33.468066 33.468066"
   fill="none"
   stroke="#006eb3"
   version="1.1"
   id="svg3"
   xmlns="http://www.w3.org/2000/svg"
   xmlns:svg="http://www.w3.org/2000/svg">
  <defs
     id="defs3" />
  <g
     id="SVGRepo_iconCarrier"
     transform="translate(0.6400187,0.74292588)">
    <circle
       style="fill:#2580ff;fill-opacity:1;stroke-width:0.0499539"
       id="path2-5"
       cx="16.094015"
       cy="15.991108"
       r="16.709057" />
    <rect
       x="0.79093969"
       y="0.79093969"
       width="30.418121"
       height="30.418121"
       rx="15.209061"
       fill="#ffffff"
       id="rect1"
       style="fill:#ffffff;stroke:#ffffff;stroke-width:1.08636;stroke-opacity:1" />
    <path
       d="m 12.6186,9.69215 c 0,0.93455 -0.8101,1.69215 -1.8093,1.69215 C 9.81004,11.3843 9,10.6267 9,9.69215 9,8.7576 9.81004,8 10.8093,8 c 0.9992,0 1.8093,0.7576 1.8093,1.69215 z"
       fill="#ffffff"
       id="path1" />
    <path
       d="M 9.24742,12.6281 H 12.3402 V 22 H 9.24742 Z"
       fill="#ffffff"
       id="path2" />
    <path
       d="M 17.3196,12.6281 H 14.2268 V 22 h 3.0928 c 0,0 0,-2.9504 0,-4.7951 0,-1.1073 0.3781,-2.2194 1.8866,-2.2194 1.7048,0 1.6946,1.449 1.6866,2.5716 -0.0104,1.4673 0.0144,2.9648 0.0144,4.4429 H 24 v -4.9463 c -0.0262,-3.1583 -0.8492,-4.6136 -3.5567,-4.6136 -1.6079,0 -2.6046,0.73 -3.1237,1.3904 z"
       fill="#ffffff"
       id="path3" />
  </g>
</svg>
